# xmcd
#
# Track frame offsets: 
#        150
#        21877
#        39742
#        75892
#        100030
#        130137
#        156107
#        186875
#        205145
#        224832
#        236442
#
# Disc length: 3414 seconds
#
# Revision: 5
# Processed by: cddbd v1.5.2PL0 Copyright (c) Steve Scherf et al.
# Submitted via: ExactAudioCopy v0.90b4
#
DISCID=8d0d540b
DTITLE=Charlie Musselwhite - Continental Drifter
DYEAR=1999
DGENRE=Blues
TTITLE0=No
TTITLE1=Can't Stay Away From You
TTITLE2=Voodoo Garden
TTITLE3=Little Star
TTITLE4=Que Te Parece, Cholita? (What Do You Think, Cholita?)
TTITLE5=Chan Chan (Charlie's Blues)
TTITLE6=Sabroso (Delicious)
TTITLE7=Siboney
TTITLE8=My Time Someday
TTITLE9=Blues Up The River
TTITLE10=Please Remember Me
EXTD=Tracks 5 - 8: featuring Eliades Ochoa and Cuarteto Patria ID3G: 0
EXTT0=
EXTT1=
EXTT2=
EXTT3=
EXTT4=
EXTT5=
EXTT6=
EXTT7=
EXTT8=
EXTT9=
EXTT10=
PLAYORDER=
